HIERARCHY
ROOT Hips
{
  OFFSET 53.7534 96.9389 0.553568
  CHANNELS 6 Xposition Yposition Zposition Zrotation Xrotation Yrotation
  JOINT spine
  {
    OFFSET 0 7.96568 0.458067
    CHANNELS 3 Zrotation Xrotation Yrotation
    JOINT spine1
    {
      OFFSET 0 10.2431 0
      CHANNELS 3 Zrotation Xrotation Yrotation
      JOINT spine2
      {
        OFFSET 0 9.81475 0
        CHANNELS 3 Zrotation Xrotation Yrotation
        JOINT Neck
        {
          OFFSET 0 25.1986 1.20138
          CHANNELS 3 Zrotation Xrotation Yrotation
          JOINT Head
          {
            OFFSET 0 7.61315 0
            CHANNELS 3 Zrotation Xrotation Yrotation
            End Site
            {
              OFFSET 0 18.4281 -6.07733
            }
          }
        }
        JOINT RightShoulder
        {
          OFFSET -4.1327 10.5992 -0.575451
          CHANNELS 3 Zrotation Xrotation Yrotation
          JOINT RightArm
          {
            OFFSET 0 13.9018 0
            CHANNELS 3 Zrotation Xrotation Yrotation
            JOINT RightArmRoll
            {
              OFFSET 0 7.01789 0
              CHANNELS 3 Zrotation Xrotation Yrotation
              JOINT RightForeArm
              {
                OFFSET 0 20.4406 0
                CHANNELS 3 Zrotation Xrotation Yrotation
                JOINT RightForeArmRoll
                {
                  OFFSET 0 7.87515 0
                  CHANNELS 3 Zrotation Xrotation Yrotation
                  JOINT RightHand
                  {
                    OFFSET 0 15.8037 0
                    CHANNELS 3 Zrotation Xrotation Yrotation
                    End Site
                    {
                      OFFSET 0 0 0
                    }
                  }
                }
              }
            }
          }
        }
        JOINT LeftShoulder
        {
          OFFSET 4.1327 10.5992 -0.575451
          CHANNELS 3 Zrotation Xrotation Yrotation
          JOINT LeftArm
          {
            OFFSET 0 13.9018 0
            CHANNELS 3 Zrotation Xrotation Yrotation
            JOINT LeftArmRoll
            {
              OFFSET 0 7.01789 0
              CHANNELS 3 Zrotation Xrotation Yrotation
              JOINT LeftForeArm
              {
                OFFSET 0 20.4406 0
                CHANNELS 3 Zrotation Xrotation Yrotation
                JOINT LeftForeArmRoll
                {
                  OFFSET 0 7.87515 0
                  CHANNELS 3 Zrotation Xrotation Yrotation
                  JOINT LeftHand
                  {
                    OFFSET 0 15.8037 0
                    CHANNELS 3 Zrotation Xrotation Yrotation
                    End Site
                    {
                      OFFSET 0 0 0
                    }
                  }
                }
              }
            }
          }
        }
      }
    }
  }
  JOINT RightUpLeg
  {
    OFFSET -7.06048 -1.2947 -1.08609
    CHANNELS 3 Zrotation Xrotation Yrotation
    JOINT RightUpLegRoll
    {
      OFFSET 0 18.5308 0
      CHANNELS 3 Zrotation Xrotation Yrotation
      JOINT RightLeg
      {
        OFFSET 0 -22.9476 0
        CHANNELS 3 Zrotation Xrotation Yrotation
        JOINT RightLegRoll
        {
          OFFSET 0 23.0226 0
          CHANNELS 3 Zrotation Xrotation Yrotation
          JOINT RightFoot
          {
            OFFSET 0 19.1625 0
            CHANNELS 3 Zrotation Xrotation Yrotation
            JOINT RightToeBase
            {
              OFFSET 0 16.0188 0
              CHANNELS 3 Zrotation Xrotation Yrotation
              End Site
              {
                OFFSET 0.00678979 7.75782 -0.894206
              }
            }
          }
        }
      }
    }
  }
  JOINT LeftUpLeg
  {
    OFFSET 7.06048 -1.2947 -1.08609
    CHANNELS 3 Zrotation Xrotation Yrotation
    JOINT LeftUpLegRoll
    {
      OFFSET 0 18.5309 0
      CHANNELS 3 Zrotation Xrotation Yrotation
      JOINT LeftLeg
      {
        OFFSET 0 22.9475 0
        CHANNELS 3 Zrotation Xrotation Yrotation
        JOINT LeftLegRoll
        {
          OFFSET 0 23.2355 0
          CHANNELS 3 Zrotation Xrotation Yrotation
          JOINT LeftFoot
          {
            OFFSET 0 18.9496 0
            CHANNELS 3 Zrotation Xrotation Yrotation
            JOINT LeftToeBase
            {
              OFFSET 0 16.0188 0
              CHANNELS 3 Zrotation Xrotation Yrotation
              End Site
              {
                OFFSET -0.0304289 7.75782 -0.894206
              }
            }
          }
        }
      }
    }
  }
}
MOTION
Frames: 5
Frame Time: 0.00208333
54.0691 97.0463 0.678329 0.51173 -5.99848 6.70302 0.0670937 -0.768783 -0.271913 0.133123 2.46495 -0.559959 0.148938 4.10998 -0.56328 1.93196 8.63978 -0.10444 1.96424 17.697 0.243303 73.3319 -5.0574 -3.99934 105.932 29.4537 -15.3402 4.47056e-005 -1.16305e-008 6.83955e-007 -178.712 78.2241 171.321 -3.75396e-006 5.32805e-006 -3 8.02928 -4.95143 0.697658 -57.025 -4.51453 2.6689 -112.957 21.5523 8.86599 -3.47873e-015 3.18055e-015 -1.98785e-015 179.409 74.6007 -173.421 2.52956e-005 -3.80078e-006 3 -8.0289 -4.95139 -0.697676 177.185 -1.87813 3.87855 180 7.01531e-015 178.854 176.931 7.68835 179.787 -3.63843e-006 -2.58404e-006 0.118033 -19.481 68.9345 20.345 8.13649 25.2327 -3.48774 -177.175 -5.80835 -1.18814 4.54188e-006 -4.6773e-006 -1.21456 -2.90445 -5.03043 -0.0195601 3.08558e-007 2.84348e-007 -0.0502234 18.3201 67.4622 -19.0977 -8.13649 25.2327 3.48774 
54.0774 97.0613 0.667795 0.514138 -5.99736 6.70821 0.06691 -0.768192 -0.271824 0.132709 2.46613 -0.559799 0.148285 4.11116 -0.563102 1.93054 8.61197 -0.111197 1.98618 17.768 0.23293 73.3294 -5.05842 -3.99968 106.008 29.5826 -15.3436 4.47056e-005 -1.16305e-008 6.83955e-007 -178.789 78.2482 171.426 -3.75396e-006 5.32805e-006 -3 8.02928 -4.95143 0.697658 -57.0253 -4.50713 2.66419 -113.017 21.6659 8.86893 4.96962e-016 9.54166e-015 -7.95139e-016 179.442 74.645 -173.482 2.52956e-005 -3.80078e-006 3 -8.0289 -4.95139 -0.697676 177.175 -1.86278 3.88365 180 7.01531e-015 178.855 176.93 7.71327 179.787 -3.63843e-006 -2.58404e-006 0.118939 -19.4918 68.9462 20.3559 8.13649 25.2327 -3.48774 -177.179 -5.81243 -1.184 4.54188e-006 -4.6773e-006 -1.21444 -2.90292 -5.01012 -0.0195002 3.08558e-007 2.84348e-007 -0.0500391 18.3148 67.4552 -19.092 -8.13649 25.2327 3.48774 
54.0755 97.0608 0.656039 0.517232 -5.99679 6.71426 0.0666822 -0.767305 -0.271765 0.132312 2.46791 -0.559502 0.147512 4.11294 -0.562779 1.9253 8.57948 -0.1182 2.01325 17.8425 0.220952 73.3256 -5.06044 -4.00041 106.084 29.7101 -15.3529 4.47056e-005 -1.16305e-008 6.83955e-007 -178.863 78.2715 171.526 -3.75396e-006 5.32805e-006 -3 8.02928 -4.95143 0.697658 -57.0256 -4.49979 2.65953 -113.081 21.7823 8.87726 4.07509e-015 -3.18055e-015 1.19271e-015 179.475 74.6896 -173.541 2.52956e-005 -3.80078e-006 3 -8.0289 -4.95139 -0.697676 177.163 -1.85155 3.89249 180 7.01531e-015 178.855 176.925 7.73306 179.788 -3.63843e-006 -2.58404e-006 0.119708 -19.4984 68.9535 20.3626 8.13649 25.2327 -3.48774 -177.183 -5.81385 -1.17995 4.54188e-006 -4.6773e-006 -1.21429 -2.90182 -4.99737 -0.0194625 3.08558e-007 2.84348e-007 -0.0500866 18.3121 67.4518 -19.089 -8.13649 25.2327 3.48774 
54.0749 97.0597 0.648874 0.520824 -5.99667 6.72106 0.0664267 -0.766173 -0.271726 0.13195 2.47018 -0.559082 0.146657 4.11521 -0.562326 1.91681 8.54296 -0.125458 2.04463 17.9198 0.207562 73.3207 -5.06333 -4.00147 106.161 29.8361 -15.368 4.47056e-005 -1.16305e-008 6.83955e-007 -178.933 78.2942 171.62 -3.75396e-006 5.32805e-006 -3 8.02928 -4.95143 0.697658 -57.0259 -4.49241 2.65483 -113.147 21.901 8.8913 -2.38542e-015 -3.18055e-015 -1.59028e-015 179.507 74.7346 -173.599 2.52956e-005 -3.80078e-006 3 -8.0289 -4.95139 -0.697676 177.15 -1.84395 3.90444 180 7.01531e-015 178.855 176.916 7.74819 179.789 -3.63843e-006 -2.58404e-006 0.120351 -19.5013 68.9567 20.3656 8.13649 25.2327 -3.48774 -177.188 -5.81285 -1.1761 4.54188e-006 -4.6773e-006 -1.21414 -2.90112 -4.99129 -0.0194479 3.08558e-007 2.84348e-007 -0.0503359 18.3116 67.4515 -19.0885 -8.13649 25.2327 3.48774 
54.0772 97.0572 0.643708 0.524725 -5.99689 6.72854 0.0661603 -0.76485 -0.271701 0.131641 2.47283 -0.55855 0.145756 4.11786 -0.561757 1.90564 8.50309 -0.13298 2.0795 17.9993 0.192955 73.3149 -5.06695 -4.00282 106.238 29.9605 -15.3886 4.47056e-005 -1.16305e-008 6.83955e-007 -179 78.3164 171.71 -3.75396e-006 5.32805e-006 -3 8.02928 -4.95143 0.697658 -57.0261 -4.48487 2.65004 -113.217 22.0217 8.91136 -2.98177e-015 -3.18055e-015 -1.19271e-015 179.54 74.7802 -173.656 2.52956e-005 -3.80078e-006 3 -8.0289 -4.95139 -0.697676 177.135 -1.8395 3.91885 180 7.01531e-015 178.855 176.904 7.75918 179.79 -3.63843e-006 -2.58404e-006 0.120879 -19.5011 68.9565 20.3654 8.13649 25.2327 -3.48774 -177.192 -5.80967 -1.17254 4.54188e-006 -4.6773e-006 -1.21397 -2.90082 -4.99101 -0.0194577 3.08558e-007 2.84348e-007 -0.0507573 18.313 67.454 -19.0901 -8.13649 25.2327 3.48774 
